<?xml version="1.0" encoding="UTF-8" standalone="no"?>
<!-- Created with Inkscape (http://www.inkscape.org/) -->

<svg
   width="141.73045mm"
   height="92.110855mm"
   viewBox="0 0 141.73045 92.110855"
   version="1.1"
   id="svg1"
   xml:space="preserve"
   xmlns="http://www.w3.org/2000/svg"
   xmlns:svg="http://www.w3.org/2000/svg"><defs
     id="defs1" /><g
     id="layer1"
     transform="translate(-31.186412,-99.427037)"><path
       style="fill:#dd0f23;fill-opacity:1;fill-rule:nonzero;stroke:#dd0f23;stroke-width:3.8;stroke-linejoin:round;stroke-dasharray:none;stroke-opacity:1;paint-order:markers fill stroke"
       d="m 84.919066,188.85597 c -0.695212,-4.62214 1.767105,-9.73258 2.574642,-14.4246 0.48824,-5.23183 -0.63682,-10.80834 -4.221177,-14.74821 -2.522254,-4.88244 -5.067795,-10.35049 -11.558725,-9.33396 -5.618003,-0.69475 -10.881592,-2.84765 -16.389329,-4.06174 -3.208073,-2.67844 -5.061774,-7.36374 -5.890732,-11.39842 -0.454427,-4.73833 -1.090782,-5.36043 -6.430657,-6.76102 0.05053,-1.85337 -0.203311,-4.57613 -0.226183,-6.1502 -1.805411,-0.0414 -4.086058,0.13293 -5.669833,-0.0176 0.146308,-2.35392 -0.137254,-4.12098 -0.08495,-5.8318 -1.244887,0.0747 -2.354583,0.0176 -3.914276,-0.0148 -0.02782,-1.96869 0.0289,-2.97118 -0.02144,-4.4081 1.616597,-0.0413 2.783285,-0.14682 4.185955,-0.20025 0.102384,-1.26433 0.119569,-3.40778 0.09484,-4.49373 1.08992,-0.11085 3.691316,-0.11374 5.246755,-0.17499 0.05737,-2.19852 0.250169,-5.04616 0.250169,-5.04616 0,0 3.726603,-0.11401 8.991051,-0.0613 4.953747,1.04118 2.918783,6.37448 9.149454,5.32779 4.094306,-0.22899 8.687091,-0.43339 10.67688,3.42693 6.304877,-0.0327 12.760359,1.04039 18.933636,-0.3927 3.84573,-3.71535 8.936028,-7.15893 14.590714,-6.14959 5.8307,-0.10633 7.78686,6.54587 13.21187,6.66105 5.57918,-0.1347 11.32087,0.33364 16.79652,-0.48702 1.7355,-4.19562 5.75463,-5.99431 10.67833,-7.16055 3.3414,-0.94087 4.48076,-1.26749 9.90802,-1.62796 5.10887,1.3521 3.18138,0.68735 8.18574,2.1312 0.087,1.23303 0.43676,2.87955 0.51544,4.87375 1.34442,0.0508 1.76999,0.11874 3.61032,0.22509 0.078,1.06155 0.0744,1.51575 0.10336,3.09801 2.33836,0.007 0.2115,-0.0301 2.6784,0.002 -0.003,0.65031 0.0142,1.48011 0.12302,3.49745 -0.89272,-3.9e-4 -0.55204,0.0211 -2.41073,-0.0684 0.0157,2.03492 -0.0543,1.97086 0.0386,5.14455 -1.65505,-0.0263 -1.61985,-0.0929 -4.32845,0.16402 -0.0439,2.70141 -1.15856,5.02307 -3.48086,6.90367 -5.23606,1.57594 -3.66597,4.2858 -4.52301,8.20739 -0.63578,2.90918 -1.13243,9.24035 -4.7408,9.07627 -4.46328,0.15724 -8.64073,2.19578 -12.72841,3.92217 -4.29969,2.44258 -12.62476,-0.22577 -13.35399,6.48229 -1.81239,5.29552 -9.29864,8.36554 -6.484,14.56636 -1.18669,4.89634 -1.11508,10.14433 0.78795,14.78422 1.27296,3.0639 1.5215,6.20856 -2.51591,5.04355 -10.54998,-0.0909 -21.114536,0.207 -31.653009,-0.23829 l -0.705716,-0.28687 z"
       id="path2" /><path
       style="display:inline;fill:#000000"
       d="m 84.919066,188.85597 c -0.695212,-4.62214 1.767105,-9.73258 2.574642,-14.4246 0.48824,-5.23183 -0.63682,-10.80834 -4.221177,-14.74821 -2.522254,-4.88244 -5.067795,-10.35049 -11.558725,-9.33396 -5.618003,-0.69475 -10.881592,-2.84765 -16.389329,-4.06174 -3.208073,-2.67844 -5.061774,-7.36374 -5.890732,-11.39842 -0.454427,-4.73833 -1.090782,-5.36043 -6.430657,-6.76102 0.05053,-1.85337 -0.203311,-4.57613 -0.226183,-6.1502 -1.805411,-0.0414 -4.086058,0.13293 -5.669833,-0.0176 0.146308,-2.35392 -0.137254,-4.12098 -0.08495,-5.8318 -1.244887,0.0747 -2.354583,0.0176 -3.914276,-0.0148 -0.02782,-1.96869 0.0289,-2.97118 -0.02144,-4.4081 1.616597,-0.0413 2.783285,-0.14682 4.185955,-0.20025 0.102384,-1.26433 0.119569,-3.40778 0.09484,-4.49373 1.08992,-0.11085 3.691316,-0.11374 5.246755,-0.17499 0.05737,-2.19852 0.250169,-5.04616 0.250169,-5.04616 0,0 3.726603,-0.11401 8.991051,-0.0613 4.953747,1.04118 2.918783,6.37448 9.149454,5.32779 4.094306,-0.22899 8.687091,-0.43339 10.67688,3.42693 6.304877,-0.0327 12.760359,1.04039 18.933636,-0.3927 3.84573,-3.71535 8.936028,-7.15893 14.590714,-6.14959 5.8307,-0.10633 7.78686,6.54587 13.21187,6.66105 5.57918,-0.1347 11.32087,0.33364 16.79652,-0.48702 1.7355,-4.19562 5.75463,-5.99431 10.67833,-7.16055 3.3414,-0.94087 4.48076,-1.26749 9.90802,-1.62796 5.10887,1.3521 3.18138,0.68735 8.18574,2.1312 0.087,1.23303 0.43676,2.87955 0.51544,4.87375 1.34442,0.0508 1.76999,0.11874 3.61032,0.22509 0.078,1.06155 0.0744,1.51575 0.10336,3.09801 2.33836,0.007 0.2115,-0.0301 2.6784,0.002 -0.003,0.65031 0.0142,1.48011 0.12302,3.49745 -0.89272,-3.9e-4 -0.55204,0.0211 -2.41073,-0.0684 0.0157,2.03492 -0.0543,1.97086 0.0386,5.14455 -1.65505,-0.0263 -1.61985,-0.0929 -4.32845,0.16402 -0.0439,2.70141 -1.15856,5.02307 -3.48086,6.90367 -5.23606,1.57594 -3.66597,4.2858 -4.52301,8.20739 -0.63578,2.90918 -1.13243,9.24035 -4.7408,9.07627 -4.46328,0.15724 -8.64073,2.19578 -12.72841,3.92217 -4.29969,2.44258 -12.62476,-0.22577 -13.35399,6.48229 -1.81239,5.29552 -9.29864,8.36554 -6.484,14.56636 -1.18669,4.89634 -1.11508,10.14433 0.78795,14.78422 1.27296,3.0639 1.5215,6.20856 -2.51591,5.04355 -10.54998,-0.0909 -21.114536,0.207 -31.653009,-0.23829 l -0.705716,-0.28687 z m 6.375664,-0.47401 c 4.692214,1.59442 2.414846,-8.9538 6.316729,-2.83289 1.555561,3.08363 6.825801,3.98719 9.059931,1.61795 2.21044,-3.55766 5.78577,-6.06807 4.75162,0.0441 2.81233,2.83104 9.1751,0.68465 5.45985,-3.50896 -2.32091,-4.91548 -4.02084,-10.3197 -3.20677,-15.86451 -0.32867,-5.58591 -0.16604,4.83151 -3.23296,5.34529 -4.00304,-0.79849 -6.35218,4.56776 -7.64284,5.15532 0.22344,-5.09 -7.25606,-3.26291 -7.392459,-6.65955 2.608057,-0.0693 5.949229,0.38241 6.624929,-2.96475 1.62964,-5.88566 -8.491796,-2.61451 -6.862629,-6.1435 3.63904,0.67582 9.699749,-5.55071 5.351649,-7.21616 -3.281603,2.65378 -9.880116,1.588 -11.818717,4.0433 3.542722,4.38757 1.428037,10.6342 0.834154,15.70969 -1.192589,4.31569 -4.346596,9.49519 -3.445685,13.67083 1.740876,-0.0158 3.465251,-0.30969 5.203198,-0.39619 z m 18.97355,-17.25558 c 1.01493,-1.97513 2.90432,-7.13424 -1.02172,-6.45559 -8.0564,-2.35769 -5.9353,10.39989 1.02172,6.45559 z m 1.37183,-8.70349 c 3.69527,-1.80896 3.78335,-4.45192 -0.68949,-4.65385 -3.0105,-2.2056 -9.35248,-4.15301 -6.4459,1.91618 1.47856,2.10601 4.63411,3.28217 7.13539,2.73767 z m -14.17205,-9.00165 c 5.02965,-5.28248 12.92649,3.69101 16.76897,-2.04196 2.8681,-3.32734 7.24262,-7.92799 12.15482,-8.57556 7.64213,-1.06594 15.52181,-0.74367 23.01123,-2.66985 2.57864,-5.57243 1.75697,-12.05607 1.35528,-18.0574 0.2334,-4.81023 -9.41856,-2.81604 -10.04457,-5.75298 -2.40043,4.19713 6.36497,3.71478 2.19059,7.22796 -2.97485,2.60328 -2.55892,9.49673 -4.83402,10.4367 -5.61746,-4.06075 -11.17522,3.42667 -15.92161,-1.02502 -5.27649,-1.14608 -10.18224,1.72151 -14.19558,4.39979 -3.29805,1.2386 -4.76621,8.95948 -6.99251,2.63336 -1.069825,-1.38222 -6.191617,-4.71727 -1.387178,-2.96523 2.954988,4.49572 6.590848,0.26744 8.603278,-2.23297 -4.86298,3.72773 -8.746234,-1.44957 -12.096967,-3.68158 -1.996571,6.84453 -8.528311,-0.89815 -13.194185,2.00718 -4.193476,4.3533 -9.629278,-3.38285 -14.803932,0.60881 -2.395775,2.23524 -4.494662,2.75832 -3.850899,-1.66878 0.658372,-3.79696 -7.157165,-10.22495 -1.980882,-11.44774 4.22992,0.93708 3.958749,-7.59013 1.568529,-2.73263 -4.113268,2.3289 -10.851721,-2.63112 -10.136536,4.8499 -0.15652,6.24953 -1.042915,13.24001 2.535745,18.68505 4.28383,-0.88016 9.400321,0.80143 13.335069,-0.13337 5.57312,1.92391 12.523022,0.12632 16.808018,5.17924 2.638268,1.50787 5.739957,5.11968 0.308766,2.83401 -5.230851,-1.4784 2.547341,7.09757 5.675903,5.29511 1.754796,-0.12797 3.466889,-0.59735 5.122671,-1.17204 z m 6.92545,-21.54612 c 3.44587,-4.56232 6.26408,-11.4476 3.58296,-16.94691 -3.7044,-4.03517 0.44596,-0.56859 1.82395,-2.37955 -2.15849,-5.58381 -11.035719,-4.81687 -14.033702,-0.27257 -4.293596,6.42819 -1.851923,16.75545 5.122082,20.19892 1.16247,0.74097 2.64467,0.4439 3.50471,-0.59989 z m 33.17852,-2.99928 c 1.74005,-3.51729 0.22931,-10.15728 -3.38884,-11.69971 -5.41907,1.07326 -10.38549,0.17972 -15.82626,-0.005 -5.58959,0.14825 -0.11676,6.10303 -3.76677,8.31601 -1.22281,6.60493 8.01366,3.26897 11.75022,4.09983 h 10.48956 c 0.24736,-0.23699 0.49473,-0.47397 0.74209,-0.71096 z m -56.129836,-0.50465 c 3.047068,-0.70827 6.258517,-0.33757 9.379207,-0.5042 0.214147,-3.3816 -0.327063,-6.63262 -1.63385,-9.67103 -2.677642,-0.58369 -5.901207,-0.0848 -8.789482,-0.25085 -3.906452,0.63894 -9.828993,-1.82933 -11.697162,2.6992 -3.881479,5.71186 4.374729,9.13834 9.030715,8.26673 1.22916,-0.0899 2.571997,0.004 3.710572,-0.53985 z M 48.610518,105.34354 c -1.733054,0.0276 -2.055571,-0.12254 -3.898064,-0.13728 -0.122088,3.68271 0.156813,11.83452 0.01082,16.89411 2.753405,-0.10466 0.433632,0.18151 3.821113,0.008 0.255594,-11.72615 -0.03832,-5.83083 0.06613,-16.76533 z m 112.308352,0.31685 c -1.62826,0.0361 -1.81413,0.0114 -3.71925,-0.0411 0.0781,5.6873 0.0408,14.4581 0.0754,17.11851 3.08712,0.0328 1.3141,-0.003 3.83322,0.0649 -0.0678,-5.86785 -0.23027,-11.39808 -0.18933,-17.14233 z M 42.63799,118.22847 c 0.02304,-1.97713 0.151251,-6.51955 0.142643,-8.46989 -1.568646,-0.0327 -1.641278,-0.0521 -2.781501,-0.0386 0.08866,1.3262 -0.07826,6.16991 -0.126612,8.49608 2.006743,0.0239 0.675562,0.0418 2.76547,0.0124 z m 123.52713,-0.21365 c 0.0315,-2.27701 0.0544,-6.24973 -0.0523,-7.89481 -1.20973,0.0425 -1.42088,0.0616 -2.7751,-0.0406 -0.0277,1.25454 0.001,5.4362 0.0476,7.76472 1.03737,0.13354 1.74373,0.0569 2.77983,0.17068 z M 59.203694,112.51226 c 2.590835,1.30442 4.278201,-2.13565 6.807922,-0.27882 2.838062,-3.57032 -6.900821,-4.52337 -9.784484,-3.3432 -3.070267,-2.22866 -3.685711,4.58846 -0.751172,3.5934 0.838805,-1.03493 2.309759,0.97109 3.727734,0.0286 z m 84.908176,0.15355 c 2.76531,-0.70815 10.23104,1.66634 7.80065,-3.60064 -3.8367,-0.31295 -12.32795,-2.1985 -12.75521,2.98711 1.99301,-0.13551 2.82081,-0.93925 4.42742,0.82895 l 0.52714,-0.2154 z"
       id="path1" /></g></svg>
